<?xml version="1.0" encoding="UTF-8" standalone="no"?>
<!-- Created with Inkscape (http://www.inkscape.org/) -->

<svg
   width="32"
   height="32"
   viewBox="0 0 8.4666665 8.4666666"
   version="1.1"
   id="svg1"
   sodipodi:docname="favicon.svg"
   inkscape:version="1.4.3 (fcd0343856, 2026-01-01)"
   xmlns:inkscape="http://www.inkscape.org/namespaces/inkscape"
   xmlns:sodipodi="http://sodipodi.sourceforge.net/DTD/sodipodi-0.dtd"
   xmlns="http://www.w3.org/2000/svg"
   xmlns:svg="http://www.w3.org/2000/svg">
  <sodipodi:namedview
     id="namedview1"
     pagecolor="#505050"
     bordercolor="#eeeeee"
     borderopacity="1"
     inkscape:showpageshadow="0"
     inkscape:pageopacity="0"
     inkscape:pagecheckerboard="0"
     inkscape:deskcolor="#505050"
     inkscape:zoom="12.59375"
     inkscape:cx="9.4491315"
     inkscape:cy="7.7022333"
     inkscape:window-width="1920"
     inkscape:window-height="1011"
     inkscape:window-x="0"
     inkscape:window-y="0"
     inkscape:window-maximized="1"
     inkscape:current-layer="svg1" />
  <defs
     id="defs1" />
  <rect
     style="fill:#733236;fill-opacity:1;stroke-width:7.18069;stroke-linecap:round"
     id="rect4"
     width="8.4666662"
     height="8.4666662"
     x="0"
     y="0"
     ry="0.70189983" />
  <path
     style="fill:#f9f9f9;fill-opacity:1;stroke-width:4.99999;stroke-linecap:round"
     d="M 1.4496278,2.9307692 1.5756824,2.4160463 1.7752688,1.9433416 1.9958643,1.7542597 2.3320099,1.5966915 2.7416873,1.3445823 3.1513647,0.99793217 3.424483,0.91389577 3.8026467,0.92440026 4.1913151,1.0609594 4.3909014,1.1660049 4.4014053,0.73531838 4.6640191,0.44119101 5.0947055,0.25210913 5.2837873,0.03151359 H 7.4477244 L 7.5002474,0.4201819 7.5527701,0.64077743 7.4267154,1.0504548 7.3321745,1.2290322 7.3952017,1.4811414 7.4057057,1.9013233 7.3426785,2.3950371 7.0485512,2.6156327 6.8069464,2.9517784 6.470801,3.350951 6.1031418,3.5820514 5.8300233,3.8236559 6.5023145,3.7921422 6.8279557,3.8341604 6.9224966,3.960215 6.701901,4.7690653 6.5758464,5.0631925 6.1136463,5.3363108 5.4938778,5.5884201 5.2266036,5.7669974 5.2896311,6.0506202 5.4577039,6.7124069 5.5312356,7.0590571 5.5207316,7.4372207 5.4997237,7.9624483 5.2896329,8.477171 H 4.9581477 L 5.1682387,8.0990074 5.2417704,7.6473118 V 7.2166252 L 5.1892477,6.7649296 5.0736978,6.3027295 4.8951205,5.8825476 4.5484703,5.9770885 4.3909019,6.1556658 4.0967747,6.2607112 3.8761791,6.1661703 3.6135654,6.0821339 3.4770062,6.292225 3.2248972,6.5863522 2.9937969,6.7859388 2.8152198,6.9119932 2.468569,6.9540114 2.1744417,7.0905705 1.7542597,7.2691479 1.5861869,7.3111661 1.4286187,7.2481389 1.3130686,7.1010753 1.1239868,6.9750206 1.0084367,6.827957 0.73531843,6.7439206 0.63027295,6.6073614 0.54623654,6.4287841 0.44119106,6.1766748 0.34665012,6.0401157 0.42018196,5.8090156 0.52522746,5.6724565 0.5987593,5.5043837 0.61976827,5.4098427 0.60926379,5.2837881 0.67229108,5.1682382 0.84036388,5.0736973 H 0.95591391 L 1.2290322,5.0947052 1.397105,5.0526881 1.5336642,4.9896609 1.1134822,4.800579 0.80885029,4.5799835 0.58825476,4.3698924 0.47270471,4.1492969 0.49371368,3.8866831 0.50421817,3.7396195 0.44119088,3.4665012 0.43068639,3.2354012 0.53573187,3.0253101 0.79834559,2.8992554 0.97692293,2.8782475 1.208023,2.962284 1.3445822,3.0043022 Z"
     id="path1"
     sodipodi:nodetypes="cccccccccccccccccccccccccccccccccccccccccccccccccccccccccccccccccccccccccccccccccccccccccccccccc" />
  <path
     style="fill:#733236;fill-opacity:1;stroke-width:8.64475;stroke-linecap:round"
     d="M 3.0405048,4.726832 3.0333816,4.3325644 3.0950705,4.1059508 3.3071329,3.8919346 3.3797801,3.7738835 2.834924,2.6750907 2.5970336,2.402008 2.4517394,2.2567138 2.5788722,2.1840665 2.6969228,2.3202803 2.7514095,2.4928177 2.998381,2.8203855 3.4524278,3.7466407 3.5523178,3.6921565 3.2980525,2.747739 3.2417805,2.3747668 3.1996582,2.0900127 3.0452818,1.790342 3.1814956,1.7267756 3.3540329,1.9628797 3.4085197,2.1081739 3.2995487,2.1535798 3.6158851,3.6376711 3.8883129,3.5650238 3.7611801,2.5933638 3.764461,2.3148481 3.7281386,2.1695538 3.6010058,2.0151774 3.6464129,1.8698832 3.7826267,1.915289 c 0,0 0.1180532,0.1543764 0.09989,0.1906995 C 3.8643557,2.1423125 3.8552747,2.31485 3.8552747,2.31485 L 3.988208,3.5196206 4.2515552,3.4560542 4.6420353,3.5559442 4.8508969,3.9282624 4.2333937,4.0463143 3.7975087,4.3641469 3.4433519,4.5911702 3.1346009,4.8363554 Z"
     id="path3"
     sodipodi:nodetypes="ccccccccccccccccccccccccccccccccccccccccc" />
  <path
     style="fill:#733236;stroke-width:4.99999;stroke-linecap:round"
     d="M 4.5589742,3.8761786 5.8867894,3.7081057 5.7673061,3.8292814 4.6287918,3.993003 Z"
     id="path4"
     sodipodi:nodetypes="ccccc" />
  <path
     style="fill:#733236;stroke-width:4.99999;stroke-linecap:round"
     d="M 3.2669149,4.6220017 1.4713834,4.9259965 1.6112383,4.9840351 3.3299426,4.7165423 Z"
     id="path5"
     sodipodi:nodetypes="ccccc" />
  <path
     style="fill:#733236;stroke-width:4.99999;stroke-linecap:round"
     d="M 3.4454922,4.590488 C 3.4665002,4.66402 3.6840201,6.0170857 3.6840201,6.0170857 L 3.5505376,6.1136476 3.2879239,4.6745244 Z"
     id="path6"
     sodipodi:nodetypes="ccccc" />
  <path
     style="fill:#733236;stroke-width:4.99999;stroke-linecap:round"
     d="M 4.3827271,1.2303067 4.5430631,3.4206599 4.7544282,3.5961604 4.4803447,1.0975709 Z"
     id="path7"
     sodipodi:nodetypes="ccccc" />
</svg>
